<?xml version="1.0" standalone="no"?>
<!DOCTYPE svg PUBLIC "-//W3C//DTD SVG 20010904//EN"
 "http://www.w3.org/TR/2001/REC-SVG-20010904/DTD/svg10.dtd">
<svg version="1.0" xmlns="http://www.w3.org/2000/svg"
 width="960.000000pt" height="960.000000pt" viewBox="0 0 960.000000 960.000000"
 preserveAspectRatio="xMidYMid meet">
<metadata>
Created by potrace 1.15, written by Peter Selinger 2001-2017
</metadata>
<g transform="translate(0.000000,960.000000) scale(0.100000,-0.100000)"
fill="#000000" stroke="none">
<path d="M5045 7732 c6 -21 5 -23 -13 -13 -11 6 -27 8 -35 5 -9 -3 -25 0 -37
6 -28 15 -47 -1 -56 -45 -15 -84 77 -139 152 -90 22 14 26 14 40 0 55 -54 -99
-105 -184 -61 -37 19 -72 81 -72 128 -1 34 -29 98 -30 67 0 -14 -7 -15 -42 -9
-24 5 -46 6 -50 4 -3 -2 -9 2 -12 8 -3 7 -3 2 0 -11 24 -95 -7 -175 -82 -212
-55 -26 -119 -21 -166 12 -33 24 -67 89 -68 129 0 18 -6 26 -20 27 -11 1 -20
-1 -20 -5 0 -4 -34 -7 -75 -7 -41 0 -75 -4 -75 -9 0 -4 -11 -6 -25 -4 -14 3
-25 4 -25 3 0 -2 24 -16 53 -33 88 -50 111 -94 77 -149 -33 -54 -130 -63 -173
-15 -14 15 -14 19 2 39 17 20 20 21 40 7 27 -20 75 -15 79 8 2 12 -16 27 -66
52 -38 19 -77 42 -86 51 -14 14 -16 14 -16 1 0 -10 -8 -14 -27 -12 -16 1 -41
-5 -58 -15 -16 -9 -48 -21 -70 -25 -22 -4 -62 -18 -88 -32 -34 -17 -56 -23
-77 -18 l-30 6 15 -30 c17 -33 20 -93 5 -120 -9 -17 -4 -22 40 -41 27 -12 50
-25 50 -29 0 -5 -13 -15 -28 -23 -27 -13 -34 -12 -88 14 -32 15 -60 27 -61 25
-2 -1 7 -22 18 -46 20 -42 20 -44 3 -57 -20 -14 -44 -17 -44 -5 0 4 -27 57
-61 117 -44 80 -60 117 -57 137 3 15 1 28 -4 28 -4 0 -8 -9 -8 -21 0 -11 -7
-27 -15 -35 -8 -9 -15 -24 -15 -35 0 -10 -5 -19 -10 -19 -6 0 -8 17 -5 43 l5
42 -12 -35 c-6 -19 -15 -37 -18 -40 -4 -3 -10 -12 -13 -20 -4 -10 -6 -8 -6 8
-1 27 -21 30 -21 3 0 -11 5 -23 10 -26 16 -10 12 -21 -15 -35 -13 -7 -22 -17
-19 -21 3 -5 -1 -6 -9 -3 -23 8 -40 -21 -27 -46 l11 -21 30 21 c16 12 27 26
24 31 -4 5 0 6 8 3 8 -3 18 0 22 6 10 17 25 -7 25 -42 0 -19 -9 -32 -35 -48
-29 -18 -33 -25 -25 -40 16 -30 24 -30 71 0 l44 30 17 -22 c9 -12 14 -26 12
-30 -10 -15 -123 -88 -137 -88 -7 0 -29 24 -47 53 -19 28 -50 75 -71 102 -46
63 -52 89 -28 111 15 14 17 20 7 27 -9 6 -7 7 5 3 12 -4 37 6 68 26 58 37 66
62 17 54 l-33 -5 34 11 c30 10 35 9 51 -12 11 -15 19 -19 24 -11 4 6 0 14 -8
17 -11 4 -16 19 -16 48 -1 32 -6 45 -26 59 -25 18 -25 18 -77 -14 -29 -19 -54
-36 -57 -39 -3 -3 -17 -11 -32 -19 -15 -8 -25 -18 -22 -23 3 -4 0 -8 -6 -8
-11 0 -104 -57 -136 -84 -11 -8 -53 -43 -94 -77 -104 -85 -310 -289 -383 -379
-34 -41 -64 -77 -67 -80 -3 -3 -32 -40 -64 -83 -436 -585 -653 -1337 -596
-2063 47 -594 261 -1162 615 -1628 46 -61 98 -127 115 -146 139 -155 188 -204
284 -289 293 -257 572 -432 881 -555 39 -16 79 -32 90 -37 26 -11 213 -72 286
-93 104 -29 364 -78 474 -88 129 -13 469 -15 605 -5 164 13 313 40 530 96 687
179 1332 638 1741 1241 628 923 708 2112 212 3105 -154 308 -340 565 -587 810
-171 171 -384 343 -406 330 -6 -4 -9 -1 -8 7 2 7 -3 12 -10 10 -8 -1 -11 2 -7
7 7 13 -32 34 -47 25 -7 -4 -8 -3 -4 4 6 10 -29 38 -93 71 -19 10 -22 10 -16
0 5 -7 4 -10 -3 -5 -6 4 -23 4 -38 0 -25 -6 -26 -9 -22 -55 l5 -49 -43 0 c-24
0 -44 5 -44 10 0 6 -3 10 -8 10 -8 0 -34 -55 -32 -66 1 -4 -3 -10 -8 -13 -6
-3 -26 -33 -44 -66 -40 -71 -82 -100 -133 -91 -49 10 -95 51 -95 86 0 40 17
46 42 15 26 -33 64 -49 86 -35 14 8 13 9 -8 10 -34 0 -66 24 -78 58 -8 24 -4
40 28 104 20 42 32 74 25 71 -7 -2 -16 -14 -19 -26 -3 -12 -8 -18 -12 -14 -4
3 1 18 10 33 10 14 15 28 12 32 -3 3 -6 0 -6 -7 0 -7 -4 -9 -10 -6 -5 3 -10
-1 -10 -9 0 -20 -7 -20 -27 0 -10 10 -26 14 -42 11 -14 -3 -35 -1 -46 3 l-20
9 20 2 c11 1 5 5 -15 8 -19 4 -39 4 -43 0 -5 -3 -26 -48 -47 -100 -38 -93 -56
-112 -87 -91 -9 6 -4 30 21 97 46 123 50 139 37 131 -6 -4 -11 -2 -11 4 0 6
-14 10 -32 9 -18 -2 -47 5 -65 14 -18 9 -41 17 -52 17 -10 0 -21 4 -23 9 -5
15 -78 23 -78 8 0 -6 -5 -4 -11 6 -13 22 -25 22 -32 -2 -4 -15 2 -22 26 -30
16 -6 38 -11 48 -11 27 0 33 -19 13 -41 -15 -17 -28 -20 -69 -17 -47 3 -50 2
-50 -21 0 -20 8 -26 48 -38 33 -9 47 -19 47 -31 -1 -39 -12 -42 -99 -20 -75
19 -82 23 -76 42 10 35 35 167 35 184 0 13 -10 17 -43 17 -23 0 -47 -3 -53 -7
-7 -5 -10 2 -7 20 l4 27 -15 -26 c-12 -20 -46 -174 -46 -205 0 -2 -14 -4 -31
-4 l-32 0 7 48 c16 113 18 169 7 176 -6 4 -11 1 -12 -6 0 -7 -4 -4 -9 7 -6 15
-9 16 -9 4 -1 -14 -7 -14 -48 -4 -28 8 -52 9 -57 4 -15 -14 -23 -11 -47 14
l-21 22 7 -23z m185 -387 c530 -83 985 -307 1359 -670 390 -378 631 -838 721
-1376 27 -158 37 -459 21 -622 -34 -343 -125 -646 -284 -942 -385 -718 -1117
-1208 -1922 -1286 -150 -15 -494 -6 -630 15 -676 108 -1296 504 -1672 1071
-123 185 -192 323 -269 533 -106 290 -151 582 -141 912 9 291 53 524 148 778
245 657 752 1177 1399 1437 195 78 401 130 640 161 138 17 487 12 630 -11z
m-2110 -184 c0 -9 -7 -27 -16 -39 -15 -22 -14 -25 8 -57 12 -18 45 -59 72 -90
l49 -56 -22 -22 -22 -22 -20 24 c-44 54 -137 151 -145 151 -4 0 -16 -7 -26
-17 -17 -15 -19 -15 -38 2 -27 25 -26 30 19 71 86 77 113 95 127 83 8 -6 14
-19 14 -28z m3602 -18 c64 -37 91 -140 54 -210 -39 -76 -150 -108 -223 -63
-65 39 -91 139 -55 210 19 38 78 84 99 76 7 -3 15 -1 19 5 9 15 67 5 106 -18z
m-3844 -237 c26 -24 61 -55 78 -70 48 -39 68 -89 54 -131 -14 -41 -66 -85
-101 -85 -31 0 -96 42 -174 113 -60 55 -60 55 -41 76 11 12 24 21 29 21 5 0
43 -31 83 -70 79 -75 114 -88 134 -50 17 32 6 50 -70 114 -67 57 -77 75 -64
110 9 24 21 20 72 -28z m4146 -70 c25 -29 46 -58 46 -63 0 -5 -9 -18 -20 -28
-20 -18 -21 -17 -56 23 -40 47 -41 47 -68 27 -18 -14 -18 -16 17 -58 27 -33
33 -47 24 -56 -19 -19 -47 -12 -77 21 -27 29 -30 30 -52 16 -13 -9 -33 -26
-46 -38 -22 -21 -24 -21 -43 -4 -10 9 -19 21 -19 25 0 15 211 189 229 189 11
0 40 -24 65 -54z m-4352 -221 c40 -27 64 -81 53 -116 -4 -12 -18 -32 -31 -44
l-24 -22 40 -27 c46 -30 48 -36 21 -60 -19 -17 -23 -16 -113 44 -108 72 -138
98 -138 117 0 20 56 99 82 118 32 22 68 19 110 -10z m4623 -165 c10 -11 16
-22 14 -23 -2 -2 -61 -38 -131 -80 l-128 -76 -15 29 -15 29 118 70 c64 39 122
71 128 71 6 0 19 -9 29 -20z m-4651 -245 c-11 -36 -21 -37 -82 -6 -34 17 -65
31 -69 31 -4 0 13 -20 37 -45 24 -25 50 -45 57 -45 20 0 15 -35 -7 -55 -17
-16 -28 -17 -90 -8 -38 5 -70 8 -70 6 0 -2 29 -17 65 -34 36 -18 65 -34 65
-36 0 -4 -20 -45 -25 -51 -1 -1 -59 25 -129 58 -115 56 -126 63 -126 88 0 53
9 57 102 44 131 -19 130 -20 50 55 -40 36 -72 73 -72 80 0 8 7 27 15 43 l15
30 135 -67 c118 -59 134 -70 129 -88z m4764 42 c2 -9 -22 -57 -52 -107 -31
-49 -54 -90 -52 -90 3 0 40 16 82 36 73 34 79 35 91 18 7 -10 13 -23 13 -29 0
-6 -61 -40 -136 -75 -111 -52 -137 -61 -145 -49 -17 26 -9 51 41 134 28 46 50
86 50 89 0 3 -31 -10 -70 -29 -38 -19 -76 -35 -85 -35 -14 0 -33 46 -23 56 3
2 58 28 124 58 121 54 155 59 162 23z m-5033 -360 c43 -24 85 -91 85 -137 0
-42 -42 -113 -79 -134 -21 -12 -52 -20 -81 -19 -47 1 -110 25 -110 43 0 5 -10
18 -21 29 -30 28 -37 106 -14 152 43 83 139 112 220 66z m5165 13 c25 -13 54
-110 45 -150 -19 -88 -144 -147 -223 -106 -15 8 -35 22 -44 32 -18 20 -62 143
-54 151 4 5 234 80 249 82 5 1 17 -4 27 -9z m102 -387 c26 -23 22 -41 -9 -47
-92 -18 -265 -47 -268 -44 -4 5 -16 58 -13 59 21 4 256 47 262 48 5 0 18 -6
28 -16z m-5488 -39 c20 -8 21 -30 1 -38 -9 -3 -22 -21 -30 -40 -19 -45 -2
-104 35 -123 89 -45 178 36 136 125 -15 31 -15 37 -2 50 21 21 45 8 62 -35 30
-70 -7 -172 -72 -199 -154 -64 -290 93 -203 235 18 30 40 38 73 25z m5381
-219 c138 -42 165 -57 165 -88 0 -18 -21 -32 -134 -84 -181 -85 -166 -81 -166
-40 0 29 5 37 30 47 35 14 36 20 13 67 -14 30 -14 36 -2 44 12 8 12 10 -1 19
-8 5 -22 10 -31 10 -11 0 -18 11 -21 30 -5 32 0 43 16 37 6 -3 65 -21 131 -42z
m-5271 -568 c14 -11 19 -28 20 -74 1 -80 -20 -107 -79 -101 -31 4 -46 -1 -68
-19 -39 -31 -82 -30 -116 5 -23 22 -29 40 -35 96 -4 38 -5 70 -3 72 3 3 202
30 243 33 11 0 28 -5 38 -12z m5337 -71 c104 -15 132 -27 148 -63 34 -74 -16
-172 -76 -149 -17 7 -17 8 -1 20 35 26 42 103 10 114 -9 3 -11 -3 -6 -22 10
-40 -3 -74 -35 -90 -22 -12 -42 -13 -102 -5 -97 13 -97 13 -92 44 l5 26 83 -7
c71 -6 83 -4 88 10 4 9 0 27 -8 40 -12 18 -28 24 -76 30 -74 7 -78 9 -71 41 5
29 5 29 133 11z m-5287 -212 c4 -15 6 -27 4 -29 -2 -1 -40 -26 -86 -55 -45
-29 -81 -54 -79 -56 2 -2 39 -9 83 -15 88 -12 124 -29 124 -60 0 -18 -4 -21
-29 -16 -16 3 -84 13 -152 22 -68 9 -128 20 -132 24 -5 5 -7 19 -5 32 2 17 35
43 123 100 66 43 125 78 131 78 7 1 15 -11 18 -25z m5212 -86 c4 -6 -4 -19
-20 -31 -81 -59 -65 -172 29 -191 65 -13 129 65 106 128 -15 37 -28 32 -36
-11 -8 -47 -21 -63 -50 -63 l-22 0 21 91 21 90 30 -5 c40 -8 92 -65 101 -111
9 -50 -19 -118 -63 -152 -50 -38 -126 -43 -173 -11 -50 34 -80 83 -80 132 0
48 30 119 57 135 24 14 70 14 79 -1z m-5099 -366 c17 -11 53 -99 53 -131 0
-74 -109 -124 -168 -78 -15 12 -12 14 -42 -40 -13 -24 -27 -43 -31 -43 -3 0
-12 13 -19 30 -11 26 -9 34 20 85 34 59 30 64 -27 40 -20 -8 -37 -14 -38 -13
-1 2 -7 13 -14 25 -14 27 -17 25 124 85 119 50 124 51 142 40z m5177 -35 c16
-12 16 -15 -4 -62 -12 -28 -25 -60 -30 -72 l-9 -21 -93 34 c-51 19 -110 41
-130 50 -39 18 -58 48 -39 67 9 9 47 -3 212 -68 12 -4 20 5 33 40 18 47 30 54
60 32z m-204 -186 c20 -10 45 -35 57 -57 84 -146 -90 -298 -224 -197 -51 38
-53 96 -5 122 27 14 47 -2 34 -26 -30 -55 79 -90 126 -40 30 32 36 69 18 106
-20 37 -44 51 -89 51 -37 0 -87 -37 -87 -65 0 -8 -4 -15 -10 -15 -5 0 -18 -16
-28 -36 l-19 -37 -6 33 c-15 73 39 158 113 178 41 11 71 7 120 -17z m-4785
-141 c17 -19 17 -21 -8 -52 -104 -132 -173 -213 -182 -212 -5 0 -14 12 -19 27
-8 20 -6 31 8 46 17 19 17 21 0 51 -11 18 -24 28 -32 25 -11 -4 -13 1 -10 20
5 24 3 25 -29 23 -57 -4 -75 48 -20 56 17 3 70 12 117 20 123 20 154 19 175
-4z m4514 -128 c20 -16 71 -52 113 -80 42 -29 79 -56 83 -61 3 -6 0 -19 -7
-30 -11 -18 -25 -21 -120 -23 l-108 -3 65 -44 c68 -47 74 -55 51 -86 -15 -22
-16 -21 -168 88 -73 53 -83 68 -67 98 10 19 17 20 122 13 l112 -6 -65 47 c-36
25 -71 50 -79 54 -11 7 -11 13 5 34 10 15 21 27 23 27 2 0 20 -13 40 -28z
m-4330 -156 c9 -11 -5 -26 -76 -78 -136 -100 -156 -106 -198 -63 -41 40 -29
105 18 105 13 0 17 -5 13 -18 -4 -10 0 -26 7 -35 11 -16 19 -13 97 43 86 61
118 71 139 46z m83 -100 c17 -23 16 -24 -63 -92 -90 -78 -100 -97 -70 -127 26
-26 44 -18 129 57 67 59 78 64 106 43 17 -12 12 -19 -58 -83 -93 -83 -132
-107 -166 -99 -53 13 -102 83 -92 132 4 22 71 92 157 167 36 31 36 31 57 2z
m4121 -57 c140 -124 129 -110 106 -138 l-20 -24 -27 24 c-59 54 -59 54 -96 21
l-35 -31 47 -40 c40 -34 45 -42 36 -58 -6 -10 -18 -19 -26 -21 -8 -2 -58 36
-111 83 -73 65 -97 93 -97 111 0 41 28 40 71 -2 21 -21 40 -36 41 -33 2 2 16
18 31 35 l29 32 -43 39 c-37 35 -40 42 -30 61 6 12 16 22 22 22 6 0 52 -37
102 -81z m-255 -175 c29 -20 31 -58 2 -49 -31 10 -86 -22 -105 -60 -14 -30
-14 -38 -1 -69 15 -35 59 -66 95 -66 33 0 81 48 81 81 0 27 3 29 35 29 36 0
36 0 30 -37 -16 -89 -105 -150 -190 -129 -69 18 -135 118 -120 185 8 37 62
100 99 117 40 17 47 17 74 -2z m-3544 -93 c6 -10 -174 -229 -190 -230 -6 -1
-19 7 -28 18 -16 17 -15 20 11 52 15 19 30 36 33 39 3 3 30 33 59 68 42 48 60
62 82 62 15 0 30 -4 33 -9z m108 -201 l-2 -115 52 73 c28 39 57 72 63 72 7 0
19 -8 28 -17 14 -17 10 -26 -59 -123 -41 -58 -79 -112 -84 -120 -8 -13 -12
-13 -36 0 -27 15 -27 15 -25 120 1 64 -1 101 -7 95 -5 -5 -28 -36 -51 -68 -41
-56 -42 -57 -66 -41 -14 9 -25 18 -25 21 0 7 119 173 144 201 13 15 29 22 46
20 l25 -3 -3 -115z m3170 94 c10 -22 9 -27 -5 -35 -9 -6 -29 -21 -44 -34 -27
-23 -27 -23 -9 -44 l18 -20 45 31 c36 24 47 28 54 17 18 -28 1 -60 -46 -86
-14 -8 -15 -14 -6 -32 15 -27 27 -27 67 4 40 31 49 31 68 3 15 -20 13 -23 -53
-70 -38 -26 -73 -48 -78 -48 -14 1 -153 207 -153 226 0 11 4 24 8 30 11 15
103 84 114 84 4 0 14 -12 20 -26z m-212 -143 c0 -18 -8 -34 -22 -43 l-22 -15
48 -84 c27 -46 54 -92 60 -102 9 -15 7 -21 -8 -33 -11 -8 -25 -14 -30 -14 -6
0 -35 43 -64 95 -30 52 -58 97 -63 100 -4 3 -19 -1 -33 -10 -23 -15 -25 -15
-35 4 -6 11 -11 24 -11 29 0 11 148 101 168 102 7 0 12 -12 12 -29z m-2623
-54 c29 -27 35 -38 30 -59 -10 -37 -34 -42 -49 -11 -16 33 -44 51 -57 38 -6
-6 -1 -36 15 -82 22 -66 23 -76 10 -106 -18 -45 -64 -65 -106 -47 -75 31 -109
131 -47 138 23 3 27 0 27 -21 0 -29 33 -62 55 -54 20 8 19 21 -6 92 -22 63
-19 95 11 125 31 31 74 25 117 -13z m301 -145 c6 -20 -39 -41 -65 -31 -26 10
-24 13 -101 -163 -23 -52 -28 -55 -57 -34 -19 14 -19 16 14 93 55 129 57 136
45 140 -6 2 -19 9 -28 16 -15 11 -16 17 -6 39 l12 26 91 -38 c50 -21 93 -43
95 -48z m1944 13 c0 -8 1 -20 2 -26 1 -6 -19 -19 -44 -29 -46 -18 -57 -34 -41
-59 8 -12 16 -12 53 2 61 23 70 22 66 -10 -3 -25 -25 -43 -81 -65 -5 -2 1 -28
13 -57 11 -30 19 -55 18 -56 -16 -13 -46 -22 -54 -17 -11 8 -94 231 -94 254 0
21 16 33 75 57 60 24 85 26 87 6z m-1812 -57 c-1 -7 -20 -71 -44 -143 -42
-126 -44 -130 -71 -128 -15 1 -30 4 -32 7 -7 6 65 225 83 254 15 24 64 31 64
10z m190 -49 c89 -21 91 -21 77 -43 -9 -13 -27 -22 -48 -24 -34 -3 -35 -3 -52
-80 -34 -151 -35 -153 -65 -146 -15 4 -29 8 -31 10 -2 2 8 51 23 109 29 111
29 135 -2 135 -26 0 -30 6 -24 35 5 30 7 30 122 4z m1369 -12 c36 -22 70 -84
71 -130 0 -40 -23 -88 -59 -121 -24 -23 -42 -30 -83 -33 -67 -5 -114 19 -145
73 -26 45 -30 115 -9 134 8 6 13 17 10 24 -7 18 50 67 88 76 43 9 85 2 127
-23z m-1156 -24 c2 -5 -2 -55 -9 -113 -13 -102 -13 -105 8 -122 43 -37 63 -11
79 103 11 77 17 94 37 107 39 26 44 6 27 -113 -8 -60 -15 -112 -15 -115 0 -4
-11 -19 -25 -34 -20 -22 -33 -26 -75 -26 -44 0 -56 5 -81 29 -22 23 -29 39
-29 70 0 39 18 183 25 209 5 13 51 17 58 5z m350 -33 c60 0 77 -3 77 -14 0
-22 -29 -46 -55 -46 -24 0 -24 -1 -27 -117 l-3 -118 -34 -3 -34 -3 6 120 5
120 -31 3 c-21 2 -33 9 -35 21 -6 32 6 50 31 43 12 -3 57 -6 100 -6z m321 -16
c4 -15 5 -28 3 -31 -3 -2 -30 -7 -61 -10 -51 -5 -56 -8 -56 -29 0 -23 4 -24
60 -24 53 0 60 -2 60 -19 0 -27 -37 -51 -77 -51 -29 0 -33 -3 -33 -25 0 -24 3
-25 60 -25 60 0 60 0 60 -29 0 -28 -3 -30 -52 -36 -29 -4 -69 -5 -88 -3 l-35
3 -8 133 c-7 97 -6 137 3 147 12 14 43 21 116 23 37 2 43 -1 48 -24z"/>
<path d="M3666 6221 c-3 -5 -30 -12 -60 -15 -29 -4 -62 -14 -72 -21 -11 -8
-29 -15 -41 -15 -13 0 -23 -4 -23 -9 0 -5 -15 -12 -32 -16 -75 -16 -219 -140
-279 -242 -35 -58 -46 -90 -71 -208 -11 -56 -3 -214 12 -229 6 -6 10 -21 10
-35 1 -25 49 -137 50 -116 1 6 7 -4 14 -21 12 -27 97 -118 164 -175 47 -40
193 -106 281 -126 77 -18 238 -31 402 -32 103 -1 119 1 143 20 14 11 26 25 26
30 0 6 14 24 30 41 17 16 30 33 30 37 0 5 13 24 30 42 16 19 30 37 30 41 0 4
13 20 28 36 63 65 76 62 -283 62 -205 0 -326 4 -330 10 -3 6 -14 10 -23 10
-39 0 -144 64 -186 114 -87 102 -126 205 -126 335 0 67 19 181 30 181 5 0 11
14 15 30 4 17 10 30 15 30 4 0 12 12 18 28 5 15 20 39 34 53 42 45 68 81 63
89 -2 4 7 5 20 2 17 -3 27 1 31 12 3 9 12 16 20 16 8 0 14 4 14 10 0 5 15 16
33 24 26 12 28 15 10 15 -12 1 -24 -3 -27 -8z"/>
<path d="M4630 6220 c-8 -5 -33 -10 -54 -10 -39 0 -118 -31 -144 -57 -7 -7
-17 -13 -22 -13 -4 0 -26 -17 -48 -39 -53 -52 -84 -146 -85 -257 0 -55 5 -88
15 -105 9 -13 18 -35 21 -49 7 -30 91 -118 136 -143 18 -9 51 -20 74 -23 23
-4 48 -12 56 -18 10 -8 149 -12 449 -14 357 -3 439 -6 456 -18 11 -8 27 -14
36 -14 9 0 23 -8 32 -17 10 -10 29 -29 43 -43 68 -67 86 -190 40 -276 -14 -26
-47 -69 -75 -95 -27 -27 -46 -50 -42 -53 9 -5 42 -1 62 7 8 3 40 11 70 17 30
6 57 14 60 18 3 4 25 18 50 31 120 66 170 160 170 318 0 152 -49 242 -152 279
-10 3 -18 10 -18 14 0 4 -24 14 -52 20 -29 7 -59 18 -67 24 -10 8 -142 12
-435 13 -452 2 -518 6 -553 29 -20 12 -23 23 -23 72 0 64 17 90 73 111 19 7
207 11 556 11 458 0 530 -2 541 -15 7 -8 19 -15 26 -15 8 0 14 -5 14 -11 0
-11 63 -79 73 -79 3 0 6 77 7 170 0 94 3 177 6 185 8 20 -34 35 -96 35 -27 0
-52 5 -55 10 -8 13 -1124 13 -1145 0z"/>
<path d="M5990 5566 l0 -606 180 0 c148 0 182 3 186 14 3 8 1 190 -4 403 -8
335 -12 396 -28 443 -10 30 -24 61 -31 68 -7 7 -13 18 -13 23 0 6 -6 16 -12
23 -7 7 -31 34 -52 59 -22 26 -44 47 -48 47 -7 0 -17 8 -69 55 -9 8 -21 15
-27 15 -7 0 -12 5 -12 11 0 6 -7 8 -16 5 -8 -3 -12 -2 -9 4 3 6 2 10 -4 10 -5
0 -17 7 -25 16 -15 14 -16 -40 -16 -590z"/>
<path d="M3615 6045 c-11 -14 -24 -25 -28 -25 -30 0 -103 -150 -77 -158 5 -2
7 -9 3 -15 -3 -7 5 -2 19 11 13 12 30 22 38 22 7 0 41 13 75 30 33 16 77 32
96 34 18 3 36 5 38 5 8 2 -59 61 -69 61 -5 0 -10 5 -10 10 0 14 -38 50 -52 50
-7 -1 -22 -12 -33 -25z"/>
<path d="M5540 5282 c0 -10 -16 -13 -90 -16 -30 -1 -86 -4 -125 -5 -38 -2 -62
-5 -52 -8 9 -2 17 -11 17 -19 0 -8 0 -16 0 -19 0 -2 10 -15 23 -29 39 -42 48
-56 62 -91 8 -18 19 -36 25 -40 16 -10 12 -25 -7 -25 -15 0 -16 -2 -3 -10 8
-5 17 -6 20 -2 3 4 23 16 45 27 52 26 115 89 115 114 0 11 5 23 10 26 13 8 13
72 0 80 -6 4 -8 11 -5 16 4 5 -3 9 -14 9 -12 0 -21 -4 -21 -8z"/>
<path d="M4505 5251 c-3 -12 -11 -21 -16 -21 -5 0 -9 -7 -9 -15 0 -8 -9 -19
-20 -25 -11 -6 -20 -19 -20 -30 0 -10 -6 -23 -13 -27 -7 -4 -18 -21 -25 -36
-7 -16 -8 -25 -2 -22 8 5 15 -23 11 -47 0 -5 11 -8 27 -9 23 0 24 -2 7 -8 -36
-14 233 -28 283 -15 l23 7 -21 19 c-11 10 -20 25 -20 33 0 7 -6 20 -12 27 -20
22 -38 56 -39 75 0 16 -2 15 -9 -2 -8 -19 -9 -19 -9 2 -1 12 -12 34 -26 49
-14 15 -23 34 -21 41 4 9 -4 13 -23 13 -16 0 -36 3 -44 6 -10 3 -18 -2 -22
-15z"/>
<path d="M3283 4505 c-17 -7 -36 -22 -42 -34 -7 -13 -11 -162 -11 -454 l0
-434 26 -27 27 -26 1599 0 1600 0 29 29 29 29 0 426 c0 284 -4 433 -11 449 -6
13 -23 31 -39 40 -26 16 -151 17 -1602 17 -1314 -1 -1578 -3 -1605 -15z m607
-204 c68 -36 98 -108 74 -177 -7 -21 -21 -44 -31 -51 -16 -12 -16 -14 3 -28
10 -8 21 -15 24 -15 3 0 16 -16 29 -35 40 -60 28 -169 -26 -217 -42 -38 -88
-48 -228 -48 l-136 0 3 276 3 276 24 19 c34 27 210 28 261 0z m451 -36 c88
-250 120 -340 123 -343 2 -1 32 76 66 173 71 198 90 225 161 225 21 0 39 -4
39 -9 0 -5 -20 -62 -44 -128 -25 -65 -71 -193 -103 -285 l-58 -168 -60 0 -60
0 -43 123 c-24 67 -68 192 -97 277 -29 85 -57 163 -61 173 -6 16 -1 18 57 15
l63 -3 17 -50z m915 29 c43 -32 63 -65 76 -124 9 -46 8 -64 -5 -110 -18 -61
-59 -117 -96 -131 -16 -7 -20 -13 -14 -22 6 -6 40 -49 77 -94 l68 -83 -79 1
-78 0 -80 104 c-44 57 -82 104 -85 105 -3 0 -4 -47 -3 -105 l2 -105 -65 0 -65
0 3 268 c3 244 5 269 22 295 l19 28 138 -3 c120 -3 141 -6 165 -24z m424 -269
l0 -295 -60 0 -60 0 0 270 0 271 25 24 c16 17 35 25 60 25 l35 0 0 -295z m620
285 c0 -24 -30 -79 -48 -89 -12 -6 -41 -11 -66 -11 l-46 0 0 -240 0 -240 -60
0 -60 0 0 240 0 240 -67 0 -68 0 3 55 4 55 204 0 c134 0 204 -4 204 -10z"/>
<path d="M3720 4129 c0 -71 2 -79 15 -66 8 9 32 21 52 27 52 17 63 28 63 61 0
37 -33 59 -87 59 l-43 0 0 -81z"/>
<path d="M3722 3910 l3 -65 44 -3 c57 -4 86 3 111 28 27 27 25 56 -5 86 -23
23 -32 25 -91 22 l-65 -3 3 -65z"/>
<path d="M5038 4203 c-2 -5 -2 -42 0 -84 3 -70 6 -77 28 -88 37 -17 89 -13
114 7 16 13 24 32 27 68 5 47 3 52 -27 77 -26 22 -42 27 -85 27 -30 0 -55 -3
-57 -7z"/>
<path d="M6657 7068 c-15 -23 -15 -23 -30 -3 -12 16 -20 18 -43 10 -78 -28
-38 -165 48 -165 77 0 125 93 78 153 -26 33 -33 34 -53 5z"/>
<path d="M2248 5833 c-15 -10 -32 -31 -39 -48 -6 -16 -18 -43 -26 -60 -14 -30
-14 -30 4 -8 10 12 27 23 38 25 17 2 20 -3 20 -32 0 -27 5 -37 27 -47 50 -25
118 24 118 85 0 46 -16 71 -55 88 -43 18 -54 17 -87 -3z"/>
<path d="M7418 5814 c-43 -14 -78 -30 -78 -37 0 -7 9 -27 20 -44 17 -29 25
-33 63 -33 74 0 117 49 96 110 -6 16 -14 30 -17 29 -4 0 -42 -12 -84 -25z"/>
<path d="M5520 2288 c-14 -5 -32 -7 -41 -5 -9 3 -23 1 -30 -4 -10 -6 -4 -9 17
-9 32 0 54 -15 54 -38 0 -8 -7 -11 -19 -7 -27 8 -44 -18 -36 -55 9 -41 58 -73
100 -65 94 17 102 158 10 184 -17 5 -41 4 -55 -1z"/>
<path d="M4526 7708 c5 -23 2 -27 -22 -30 -38 -4 -51 -28 -35 -66 15 -37 69
-65 106 -56 33 8 75 59 75 91 0 30 -50 83 -79 83 -12 0 -21 -4 -21 -9 0 -5 8
-7 19 -4 10 3 22 0 25 -6 5 -7 -4 -11 -23 -11 -18 0 -34 7 -41 18 -8 14 -9 12
-4 -10z"/>
</g>
</svg>
